<svg xmlns="http://www.w3.org/2000/svg" viewBox="0 12.75 170.87999725341797 36.75" data-asc="0.975" width="170.87999725341797" height="36.75">
<defs/><g><g fill="#fff">

<circle cx="10" cy="35" r="8"/>
<g transform="translate(35, 0)">

<path d="M14.88 49.50Q12.43 49.50 10.45 48.77Q8.48 48.05 7.03 46.77Q5.58 45.50 4.75 43.83L5.65 42.40L5.65 48.75L0 48.75L0 12.75L6.38 12.75L6.38 29.47L5.00 28.02Q6.67 25.67 9.11 24.34Q11.55 23 14.78 23Q18.48 23 21.33 24.76Q24.18 26.52 25.78 29.54Q27.38 32.55 27.38 36.25Q27.38 39.13 26.45 41.56Q25.53 44 23.85 45.77Q22.18 47.55 19.89 48.52Q17.60 49.50 14.88 49.50M13.70 43.90Q15.80 43.90 17.46 42.96Q19.13 42.02 20.08 40.31Q21.03 38.60 21.03 36.25Q21.03 33.90 20.08 32.17Q19.13 30.45 17.48 29.52Q15.83 28.60 13.70 28.60Q11.57 28.60 9.91 29.52Q8.25 30.45 7.31 32.17Q6.38 33.90 6.38 36.25Q6.38 38.60 7.33 40.31Q8.28 42.02 9.93 42.96Q11.57 43.90 13.70 43.90ZM44.23 49.50Q40.23 49.50 37.14 47.69Q34.05 45.88 32.30 42.86Q30.55 39.85 30.55 36.25Q30.55 33.60 31.55 31.20Q32.55 28.80 34.39 26.96Q36.23 25.13 38.73 24.06Q41.23 23 44.23 23Q48.20 23 51.29 24.80Q54.38 26.60 56.14 29.63Q57.90 32.65 57.90 36.25Q57.90 38.90 56.89 41.29Q55.88 43.67 54.05 45.52Q52.23 47.38 49.73 48.44Q47.23 49.50 44.23 49.50M44.23 43.90Q46.33 43.90 47.99 42.96Q49.65 42.02 50.60 40.31Q51.55 38.60 51.55 36.25Q51.55 33.90 50.60 32.17Q49.65 30.45 48 29.52Q46.35 28.60 44.23 28.60Q42.10 28.60 40.44 29.52Q38.77 30.45 37.84 32.17Q36.90 33.90 36.90 36.25Q36.90 38.60 37.85 40.31Q38.80 42.02 40.45 42.96Q42.10 43.90 44.23 43.90ZM63.18 48.75L63.18 23.75L69.58 23.75L69.58 26.75Q71.08 24.77 73.09 23.89Q75.10 23 77.30 23Q80.75 23 83.01 24.38Q85.28 25.75 86.38 27.90Q87.47 30.05 87.47 32.40L87.47 48.75L81.08 48.75L81.08 34.40Q81.08 31.85 79.60 30.35Q78.13 28.85 75.47 28.85Q73.75 28.85 72.41 29.61Q71.08 30.38 70.33 31.75Q69.58 33.13 69.58 34.92L69.58 48.75L63.18 48.75ZM105 49.50Q101.35 49.50 98.53 47.80Q95.70 46.10 94.10 43.10Q92.50 40.10 92.50 36.25Q92.50 33.48 93.41 31.06Q94.33 28.65 96.01 26.84Q97.70 25.02 100 24.01Q102.30 23 105.10 23Q108.33 23 110.75 24.29Q113.18 25.57 114.88 27.92L113.48 29.38L113.48 12.75L119.88 12.75L119.88 48.75L114.23 48.75L114.23 42.58L115.13 44.02Q113.85 46.40 111.33 47.95Q108.80 49.50 105 49.50M106.18 43.90Q108.28 43.90 109.94 42.96Q111.60 42.02 112.55 40.31Q113.50 38.60 113.50 36.25Q113.50 33.90 112.55 32.17Q111.60 30.45 109.95 29.52Q108.30 28.60 106.18 28.60Q104.05 28.60 102.39 29.52Q100.73 30.45 99.79 32.17Q98.85 33.90 98.85 36.25Q98.85 38.60 99.80 40.31Q100.75 42.02 102.40 42.96Q104.05 43.90 106.18 43.90Z"/>
</g>
</g>
</g>

</svg>